{
	"asset":{
		"generator":"Khronos glTF Blender I/O v3.6.28",
		"version":"2.0"
	},
	"scene":0,
	"scenes":[
		{
			"name":"Scene",
			"nodes":[
				0
			]
		}
	],
	"nodes":[
		{
			"mesh":0,
			"name":"spaceship",
			"scale":[
				1,
				1,
				2.2022364139556885
			]
		}
	],
	"meshes":[
		{
			"name":"Plane",
			"primitives":[
				{
					"attributes":{
						"POSITION":0,
						"NORMAL":1,
						"TEXCOORD_0":2
					},
					"indices":3
				}
			]
		}
	],
	"accessors":[
		{
			"bufferView":0,
			"componentType":5126,
			"count":529,
			"max":[
				1.1437405347824097,
				0.8058830499649048,
				1
			],
			"min":[
				-1.1437405347824097,
				0,
				-1.0656324625015259
			],
			"type":"VEC3"
		},
		{
			"bufferView":1,
			"componentType":5126,
			"count":529,
			"type":"VEC3"
		},
		{
			"bufferView":2,
			"componentType":5126,
			"count":529,
			"type":"VEC2"
		},
		{
			"bufferView":3,
			"componentType":5123,
			"count":1374,
			"type":"SCALAR"
		}
	],
	"bufferViews":[
		{
			"buffer":0,
			"byteLength":6348,
			"byteOffset":0,
			"target":34962
		},
		{
			"buffer":0,
			"byteLength":6348,
			"byteOffset":6348,
			"target":34962
		},
		{
			"buffer":0,
			"byteLength":4232,
			"byteOffset":12696,
			"target":34962
		},
		{
			"buffer":0,
			"byteLength":2748,
			"byteOffset":16928,
			"target":34963
		}
	],
	"buffers":[
		{
			"byteLength":19676,
			"uri":"data:application/octet-stream;base64,"
		}
	]
}
